# xmcd
#
# Track frame offsets: 
#        150
#        11372
#        25441
#        40585
#        51744
#        62230
#        76992
#        86279
#        100860
#        112535
#        124610
#        133007
#        139273
#        151609
#        160538
#        175470
#
# Disc length: 2444 seconds
#
# Revision: 0
# Processed by: cddbd v1.5.2PL0 Copyright (c) Steve Scherf et al.
# Submitted via: ExactAudioCopy v0.99pb5
#
DISCID=bf098a10
DTITLE=MTG - Parhaat Lasten Joululaulut 7
DYEAR=1900
DGENRE=Christian Gangsta Rap
TTITLE0=Talven Ihmemaa
TTITLE1=Jouluterveiset Pohjolasta
TTITLE2=Joulumaa
TTITLE3=Kimmeltävä Tähtönen
TTITLE4=Petteri Punakuono
TTITLE5=Nyt Sytytämme Kynttilän
TTITLE6=Nisse-polkka
TTITLE7=On Hauskaa Tontuilla
TTITLE8=Tontujen Jouluyö
TTITLE9=Pieni Enkeli
TTITLE10=Porsaita Äidin
TTITLE11=Reippahasti Käypi Askeleet
TTITLE12=Tontujen Joulukiireet
TTITLE13=Tuikkikaa oi Joulun Tähtöset
TTITLE14=On Aika Joulun
TTITLE15=Enkeli Taivaan
EXTD=
EXTT0=
EXTT1=
EXTT2=
EXTT3=
EXTT4=
EXTT5=
EXTT6=
EXTT7=
EXTT8=
EXTT9=
EXTT10=
EXTT11=
EXTT12=
EXTT13=
EXTT14=
EXTT15=
PLAYORDER=
